HIERARCHY
ROOT CG
{
	OFFSET 0.000000 0.000000 27.772259
	CHANNELS 6 Xposition Yposition Zposition Xrotation Yrotation Zrotation
	JOINT Pelvis
	{
		OFFSET 0.000000 0.000000 0.000000
		CHANNELS 3 Xrotation Yrotation Zrotation
		JOINT Spine
		{
			OFFSET -0.000017 -10.490843 -0.495483
			CHANNELS 3 Xrotation Yrotation Zrotation
			JOINT Spine1
			{
				OFFSET -0.000010 -22.678980 0.018061
				CHANNELS 3 Xrotation Yrotation Zrotation
				JOINT Spine2
				{
					OFFSET -0.000010 -22.678967 0.018061
					CHANNELS 3 Xrotation Yrotation Zrotation
					JOINT Spine3
					{
						OFFSET -0.000010 -22.678982 0.018059
						CHANNELS 3 Xrotation Yrotation Zrotation
						JOINT Neck
						{
							OFFSET -0.000012 -22.678986 -1.289251
							CHANNELS 3 Xrotation Yrotation Zrotation
							JOINT Neck1
							{
								OFFSET -0.000007 -16.255905 0.012947
								CHANNELS 3 Xrotation Yrotation Zrotation
								JOINT Head
								{
									OFFSET -0.000005 -10.784607 -0.287502
									CHANNELS 3 Xrotation Yrotation Zrotation
									JOINT Jaw01
									{
										OFFSET 0.000031 7.782959 5.073944
										CHANNELS 3 Xrotation Yrotation Zrotation
										JOINT Jaw02
										{
											OFFSET 0.000004 -34.927139 -18.883980
											CHANNELS 3 Xrotation Yrotation Zrotation
											End Site
											{
												OFFSET -0.000170 8.372803 -38.812450
											}
										}
									}
									JOINT Nose
									{
										OFFSET -0.000002 -25.700912 7.222265
										CHANNELS 3 Xrotation Yrotation Zrotation
										End Site
										{
											OFFSET -0.000090 0.641281 -21.715439
										}
									}
									JOINT L_EyeSocket
									{
										OFFSET 7.352326 -19.832718 14.164183
										CHANNELS 3 Xrotation Yrotation Zrotation
										JOINT L_Eye
										{
											OFFSET -0.000868 -0.001053 0.016003
											CHANNELS 3 Xrotation Yrotation Zrotation
											End Site
											{
												OFFSET -0.001505 -0.001846 0.027969
											}
										}
										JOINT L_Eyelid_Top
										{
											OFFSET -0.001004 -0.002625 0.032516
											CHANNELS 3 Xrotation Yrotation Zrotation
											End Site
											{
												OFFSET -0.013218 0.005753 0.024086
											}
										}
										JOINT L_Eyelid_Bottom
										{
											OFFSET -0.001194 -0.002777 0.035381
											CHANNELS 3 Xrotation Yrotation Zrotation
											End Site
											{
												OFFSET -0.010032 0.008636 -0.024754
											}
										}
									}
									JOINT R_EyeSocket
									{
										OFFSET -7.352252 -19.832748 14.164206
										CHANNELS 3 Xrotation Yrotation Zrotation
										JOINT R_Eye
										{
											OFFSET 0.000875 -0.001068 0.015991
											CHANNELS 3 Xrotation Yrotation Zrotation
											End Site
											{
												OFFSET 0.001505 -0.001846 0.027962
											}
										}
										JOINT R_Eyelid_Top
										{
											OFFSET 0.001021 -0.002625 0.032516
											CHANNELS 3 Xrotation Yrotation Zrotation
											End Site
											{
												OFFSET 0.013214 0.005753 0.024078
											}
										}
										JOINT R_Eyelid_Bottom
										{
											OFFSET 0.001170 -0.002762 0.035366
											CHANNELS 3 Xrotation Yrotation Zrotation
											End Site
											{
												OFFSET 0.010029 0.008636 -0.024746
											}
										}
									}
								}
								JOINT Neck_Fat
								{
									OFFSET 0.000044 -9.595100 -17.491512
									CHANNELS 3 Xrotation Yrotation Zrotation
									End Site
									{
										OFFSET -0.000036 15.369423 -0.000007
									}
								}
							}
						}
						JOINT L_Clavicle
						{
							OFFSET 4.567107 -11.666092 -3.750029
							CHANNELS 3 Xrotation Yrotation Zrotation
							JOINT L_UpperArm
							{
								OFFSET 20.725666 -0.000053 -0.000032
								CHANNELS 3 Xrotation Yrotation Zrotation
								JOINT L_Forearm
								{
									OFFSET 5.265112 -0.585754 -20.155697
									CHANNELS 3 Xrotation Yrotation Zrotation
									JOINT L_Hand
									{
										OFFSET 2.653017 -10.877708 -16.383667
										CHANNELS 3 Xrotation Yrotation Zrotation
										JOINT L_Finger0
										{
											OFFSET -4.206146 -4.328911 -5.034346
											CHANNELS 3 Xrotation Yrotation Zrotation
											JOINT L_Finger01
											{
												OFFSET 0.084272 -1.788536 -4.181065
												CHANNELS 3 Xrotation Yrotation Zrotation
												End Site
												{
													OFFSET 3.261885 3.094673 -0.685818
												}
											}
										}
										JOINT L_Finger1
										{
											OFFSET -1.039112 -6.775742 -3.499998
											CHANNELS 3 Xrotation Yrotation Zrotation
											JOINT L_Finger11
											{
												OFFSET 1.320335 -3.040672 -6.425793
												CHANNELS 3 Xrotation Yrotation Zrotation
												End Site
												{
													OFFSET -1.244579 6.832077 -2.013330
												}
											}
										}
										JOINT L_Finger2
										{
											OFFSET 2.531296 -5.656487 -3.286415
											CHANNELS 3 Xrotation Yrotation Zrotation
											JOINT L_Finger21
											{
												OFFSET 1.991665 -2.402016 -5.957748
												CHANNELS 3 Xrotation Yrotation Zrotation
												End Site
												{
													OFFSET -2.793068 5.800873 -1.944178
												}
											}
										}
										JOINT L_Finger3
										{
											OFFSET 5.474075 -3.302338 -2.655975
											CHANNELS 3 Xrotation Yrotation Zrotation
											JOINT L_Finger31
											{
												OFFSET 2.026943 -1.267532 -5.961166
												CHANNELS 3 Xrotation Yrotation Zrotation
												End Site
												{
													OFFSET -4.375172 4.343658 -1.800320
												}
											}
										}
										JOINT L_Finger4
										{
											OFFSET 4.825745 1.085899 -2.321970
											CHANNELS 3 Xrotation Yrotation Zrotation
											JOINT L_Finger41
											{
												OFFSET 3.358261 -1.829651 -3.744434
												CHANNELS 3 Xrotation Yrotation Zrotation
												End Site
												{
													OFFSET -3.843296 2.955200 -2.267633
												}
											}
										}
									}
								}
							}
						}
						JOINT R_Clavicle
						{
							OFFSET -4.567111 -11.666092 -3.750036
							CHANNELS 3 Xrotation Yrotation Zrotation
							JOINT R_UpperArm
							{
								OFFSET -20.725670 -0.000031 0.000038
								CHANNELS 3 Xrotation Yrotation Zrotation
								JOINT R_Forearm
								{
									OFFSET -5.265285 -0.585762 -20.155655
									CHANNELS 3 Xrotation Yrotation Zrotation
									JOINT R_Hand
									{
										OFFSET -2.653147 -10.877739 -16.383663
										CHANNELS 3 Xrotation Yrotation Zrotation
										JOINT R_Finger0
										{
											OFFSET 4.206116 -4.328888 -5.034388
											CHANNELS 3 Xrotation Yrotation Zrotation
											JOINT R_Finger01
											{
												OFFSET -0.084324 -1.788544 -4.181051
												CHANNELS 3 Xrotation Yrotation Zrotation
												End Site
												{
													OFFSET -3.261890 3.094666 -0.685791
												}
											}
										}
										JOINT R_Finger1
										{
											OFFSET 1.039101 -6.775711 -3.499994
											CHANNELS 3 Xrotation Yrotation Zrotation
											JOINT R_Finger11
											{
												OFFSET -1.320374 -3.040672 -6.425779
												CHANNELS 3 Xrotation Yrotation Zrotation
												End Site
												{
													OFFSET 1.244556 6.832077 -2.013342
												}
											}
										}
										JOINT R_Finger2
										{
											OFFSET -2.531307 -5.656464 -3.286409
											CHANNELS 3 Xrotation Yrotation Zrotation
											JOINT R_Finger21
											{
												OFFSET -1.991707 -2.402016 -5.957708
												CHANNELS 3 Xrotation Yrotation Zrotation
												End Site
												{
													OFFSET 2.793037 5.800858 -1.944197
												}
											}
										}
										JOINT R_Finger3
										{
											OFFSET -5.474091 -3.302330 -2.655947
											CHANNELS 3 Xrotation Yrotation Zrotation
											JOINT R_Finger31
											{
												OFFSET -2.026993 -1.267532 -5.961157
												CHANNELS 3 Xrotation Yrotation Zrotation
												End Site
												{
													OFFSET 4.375156 4.343674 -1.800358
												}
											}
										}
										JOINT R_Finger4
										{
											OFFSET -4.825756 1.085922 -2.321926
											CHANNELS 3 Xrotation Yrotation Zrotation
											JOINT R_Finger41
											{
												OFFSET -3.358307 -1.829651 -3.744390
												CHANNELS 3 Xrotation Yrotation Zrotation
												End Site
												{
													OFFSET 3.843273 2.955208 -2.267666
												}
											}
										}
									}
								}
							}
						}
					}
				}
			}
		}
		JOINT Tail01
		{
			OFFSET -0.000010 10.922326 -0.017508
			CHANNELS 3 Xrotation Yrotation Zrotation
			JOINT Tail02
			{
				OFFSET -0.000022 21.986111 0.000013
				CHANNELS 3 Xrotation Yrotation Zrotation
				JOINT Tail03
				{
					OFFSET -0.000022 21.986118 0.000002
					CHANNELS 3 Xrotation Yrotation Zrotation
					JOINT Tail04
					{
						OFFSET -0.000022 21.986122 0.000004
						CHANNELS 3 Xrotation Yrotation Zrotation
						JOINT Tail05
						{
							OFFSET -0.000022 21.986099 0.000010
							CHANNELS 3 Xrotation Yrotation Zrotation
							JOINT Tail06
							{
								OFFSET -0.000022 21.986099 0.000006
								CHANNELS 3 Xrotation Yrotation Zrotation
								JOINT Tail07
								{
									OFFSET -0.000022 21.986099 0.000000
									CHANNELS 3 Xrotation Yrotation Zrotation
									JOINT Tail08
									{
										OFFSET -0.000022 21.984848 0.000050
										CHANNELS 3 Xrotation Yrotation Zrotation
										JOINT Tail09
										{
											OFFSET -0.000025 21.926025 -1.606211
											CHANNELS 3 Xrotation Yrotation Zrotation
											JOINT Tail10
											{
												OFFSET -0.000027 21.750092 -3.203882
												CHANNELS 3 Xrotation Yrotation Zrotation
												End Site
												{
													OFFSET -0.000036 4.767395 21.461668
												}
											}
										}
									}
								}
							}
						}
					}
				}
			}
		}
		JOINT L_Thigh
		{
			OFFSET 24.788780 0.000021 -0.000034
			CHANNELS 3 Xrotation Yrotation Zrotation
			JOINT L_Calf
			{
				OFFSET 4.720837 4.161326 -21.049969
				CHANNELS 3 Xrotation Yrotation Zrotation
				JOINT L_Foot
				{
					OFFSET 2.154160 21.114433 -11.949743
					CHANNELS 3 Xrotation Yrotation Zrotation
					JOINT L_Toe0
					{
						OFFSET 4.557564 9.251841 -8.735286
						CHANNELS 3 Xrotation Yrotation Zrotation
						End Site
						{
							OFFSET 4.555542 -12.646044 1.018752
						}
					}
					JOINT L_Toe1
					{
						OFFSET 2.346291 5.845602 -11.687160
						CHANNELS 3 Xrotation Yrotation Zrotation
						End Site
						{
							OFFSET 5.347954 -12.298279 1.365644
						}
					}
					JOINT L_Toe2
					{
						OFFSET -0.356020 3.902458 -12.541145
						CHANNELS 3 Xrotation Yrotation Zrotation
						End Site
						{
							OFFSET 3.916235 -12.806129 1.542549
						}
					}
					JOINT L_Toe3
					{
						OFFSET -4.603447 3.183935 -12.435249
						CHANNELS 3 Xrotation Yrotation Zrotation
						End Site
						{
							OFFSET 3.810858 -12.587427 2.957583
						}
					}
					JOINT L_Toe4
					{
						OFFSET -7.144358 6.231495 -10.072764
						CHANNELS 3 Xrotation Yrotation Zrotation
						End Site
						{
							OFFSET 3.810858 -12.587425 2.957585
						}
					}
				}
			}
		}
		JOINT R_Thigh
		{
			OFFSET -24.788780 -0.000024 0.000034
			CHANNELS 3 Xrotation Yrotation Zrotation
			JOINT R_Calf
			{
				OFFSET -4.720922 4.161324 -21.049952
				CHANNELS 3 Xrotation Yrotation Zrotation
				JOINT R_Foot
				{
					OFFSET -2.154238 21.114414 -11.949730
					CHANNELS 3 Xrotation Yrotation Zrotation
					JOINT R_Toe0
					{
						OFFSET -4.557598 9.251823 -8.735270
						CHANNELS 3 Xrotation Yrotation Zrotation
						End Site
						{
							OFFSET -4.555508 -12.646051 1.018756
						}
					}
					JOINT R_Toe1
					{
						OFFSET -2.346325 5.845589 -11.687157
						CHANNELS 3 Xrotation Yrotation Zrotation
						End Site
						{
							OFFSET -5.347919 -12.298286 1.365654
						}
					}
					JOINT R_Toe2
					{
						OFFSET 0.355980 3.902462 -12.541145
						CHANNELS 3 Xrotation Yrotation Zrotation
						End Site
						{
							OFFSET -3.916199 -12.806131 1.542559
						}
					}
					JOINT R_Toe3
					{
						OFFSET 4.603411 3.183941 -12.435266
						CHANNELS 3 Xrotation Yrotation Zrotation
						End Site
						{
							OFFSET -3.810825 -12.587429 2.957591
						}
					}
					JOINT R_Toe4
					{
						OFFSET 7.144323 6.231503 -10.072779
						CHANNELS 3 Xrotation Yrotation Zrotation
						End Site
						{
							OFFSET -3.810825 -12.587433 2.957584
						}
					}
				}
			}
		}
	}
}
MOTION
Frames: 4
Frame Time: 0.033333
0.000000 0.000000 52.000000 0.000000 -0.000000 0.000044 -8.842944 -0.000088 0.000007 10.961080 0.000007 0.000018 2.118162 -0.000001 0.000003 4.876472 -0.000002 0.000004 -2.163954 0.000002 -0.000003 -6.986527 0.000003 -0.000007 -13.013541 0.000008 -0.000015 14.417327 -0.000016 -0.000007 -11.537027 -0.000053 0.000048 0.000010 0.000000 -0.000000 0.000020 -0.000000 -0.000000 -0.000004 0.000007 -0.000020 0.000112 -0.000069 0.000010 0.000001 -0.000003 -0.000003 0.000010 0.000007 0.000009 0.000008 0.000000 0.000005 0.000110 0.000069 -0.000007 0.000002 -0.000002 0.000002 0.000002 -0.000006 -0.000000 -0.000000 -0.000000 -0.000000 -0.000873 4.114584 11.904649 26.136754 -13.607886 -29.332463 -23.413088 4.857584 -5.359890 -64.573387 -13.413033 -14.628604 4.814250 45.237876 32.496821 0.108396 -0.103823 0.046711 31.239878 13.715134 -10.715220 -21.103486 -3.971326 -2.962970 30.256536 6.344424 -6.448661 -32.343285 -14.390351 -8.157534 20.872339 -11.244815 -8.185808 -18.722436 -18.085392 -5.094122 18.635514 -29.682657 -0.393833 0.555231 0.804617 0.101794 -0.000908 -4.114892 -11.904634 1.174997 14.107443 33.206221 -12.983110 -2.414557 3.207795 -53.408862 5.511613 0.402029 4.813898 -45.237828 -32.497121 0.108392 0.103821 -0.046717 31.239926 -13.715161 10.714980 -21.103478 3.971271 2.963142 30.256560 -6.344444 6.448432 -32.343306 14.390252 8.157745 20.872418 11.244833 8.185623 -18.722460 18.085327 5.094271 18.635548 29.682660 0.393677 0.555240 -0.804615 -0.101801 -12.821442 -0.000004 0.000031 -8.690512 -1.231629 3.950030 3.553607 -0.181040 4.130727 10.254868 -0.516811 -5.348507 8.081715 -0.227258 -5.341328 3.149384 -0.198539 -9.484002 2.260961 -0.385533 -9.446041 3.251357 -0.480233 7.201988 2.529277 0.390782 7.076520 2.504831 0.702950 7.052490 -27.408921 -10.892136 11.838793 -10.432392 -0.073219 -2.410103 -27.253681 -19.732213 -8.454192 -2.318590 -4.298933 -0.446774 8.087294 0.872398 0.413570 17.133842 6.636278 3.687469 20.253541 6.370516 -9.434373 -1.696116 7.323595 -8.103853 -11.861611 6.993961 -18.227391 -11.338113 0.058829 2.619267 -43.150492 17.417208 11.350126 -2.318604 4.298946 0.446766 8.087303 -0.872359 -0.413616 17.133828 -6.636221 -3.687524 20.253563 -6.370406 9.434276 -1.696092 -7.323606 8.103833 
-0.000000 -0.403074 51.867115 0.000000 -0.000000 0.000044 -8.903760 -0.000089 0.000014 10.997129 0.021257 0.039818 2.220500 0.020803 0.040068 4.978808 0.020802 0.040070 -2.116451 0.021032 0.039947 -6.502647 0.417902 0.451644 -12.516198 0.416973 0.452544 14.043636 0.191660 0.353493 -11.719807 -0.000053 0.000048 -0.216537 -0.000001 0.000001 0.000021 -0.000000 0.000000 -0.000005 0.000007 -0.000013 0.000109 -0.000074 0.000008 0.000001 -0.000004 0.000006 0.000009 0.000006 0.000012 0.000007 0.000000 0.000007 0.000107 0.000074 -0.000007 -0.000000 0.000001 0.000002 0.000003 -0.000007 -0.000001 0.000000 0.000000 -0.000000 -0.000500 4.028735 11.904888 26.912443 -13.962742 -29.227452 -24.647906 5.172547 -5.585360 -64.398241 -13.717199 -15.015268 4.814246 45.237873 32.496821 0.108399 -0.103821 0.046715 31.239865 13.715134 -10.715220 -21.103480 -3.971329 -2.962969 30.256536 6.344422 -6.448661 -32.343282 -14.390351 -8.157531 20.872341 -11.244811 -8.185803 -18.722442 -18.085392 -5.094126 18.635514 -29.682653 -0.393831 0.555234 0.804615 0.101800 -0.000922 -4.029596 -11.904727 2.296948 14.785886 32.408896 -14.820566 -2.814852 3.617319 -53.085712 5.742027 0.506220 4.813894 -45.237832 -32.497118 0.108393 0.103815 -0.046719 31.239933 -13.715165 10.714980 -21.103473 3.971270 2.963141 30.256560 -6.344441 6.448432 -32.343302 14.390252 8.157745 20.872419 11.244836 8.185624 -18.722465 18.085328 5.094267 18.635555 29.682667 0.393676 0.555232 -0.804614 -0.101800 -12.719833 -0.000003 0.000031 -8.662358 -1.231629 3.950023 3.571912 -0.182371 4.130725 10.273029 -0.519447 -5.348512 8.058865 -0.226104 -5.341326 3.135050 -0.199145 -9.484003 2.246922 -0.388489 -9.446049 3.237996 -0.485466 7.202102 2.515370 0.387252 7.076715 2.504829 0.702949 7.052490 -27.367465 -11.114521 11.676267 -9.397774 -0.085580 -2.170970 -28.218698 -19.574733 -8.414411 -2.318589 -4.298928 -0.446775 8.087296 0.872400 0.413568 17.133844 6.636287 3.687462 20.253539 6.370522 -9.434378 -1.696116 7.323599 -8.103851 -11.424505 7.096769 -18.217940 -10.983387 0.064848 2.537384 -43.770079 17.304528 11.203990 -2.318606 4.298941 0.446764 8.087307 -0.872358 -0.413614 17.133828 -6.636225 -3.687523 20.253560 -6.370404 9.434276 -1.696094 -7.323605 8.103835 
-0.000000 -0.811104 51.732765 0.000000 -0.000000 0.000044 -8.966468 -0.000089 0.000041 11.037378 0.042121 0.076045 2.324684 0.041445 0.076480 5.082990 0.041444 0.076482 -2.066759 0.041870 0.076284 -6.017273 0.848744 0.907871 -12.017370 0.846966 0.909590 13.660255 0.396430 0.720649 -11.906641 -0.000053 0.000048 -0.437422 -0.000001 0.000002 0.000020 0.000000 0.000000 -0.000005 0.000007 -0.000017 0.000105 -0.000079 -0.000006 0.000006 0.000004 -0.000003 0.000011 0.000007 0.000007 0.000007 0.000000 0.000007 0.000104 0.000080 0.000002 0.000003 -0.000009 0.000001 0.000005 -0.000011 0.000003 0.000000 -0.000000 0.000000 0.000283 3.941049 11.904956 27.700056 -14.322109 -29.099755 -25.874713 5.490346 -5.802793 -64.245217 -14.012595 -15.403192 4.814250 45.237873 32.496824 0.108400 -0.103820 0.046712 31.239868 13.715131 -10.715216 -21.103483 -3.971328 -2.962970 30.256543 6.344424 -6.448658 -32.343285 -14.390355 -8.157535 20.872338 -11.244813 -8.185804 -18.722433 -18.085390 -5.094120 18.635507 -29.682646 -0.393828 0.555235 0.804615 0.101801 -0.000895 -3.942388 -11.904670 3.407532 15.419555 31.629295 -16.614621 -3.218633 4.005177 -52.776605 5.972739 0.617499 4.813904 -45.237832 -32.497121 0.108391 0.103822 -0.046712 31.239933 -13.715162 10.714979 -21.103478 3.971271 2.963138 30.256560 -6.344439 6.448430 -32.343302 14.390252 8.157744 20.872426 11.244835 8.185622 -18.722465 18.085330 5.094269 18.635553 29.682663 0.393678 0.555236 -0.804615 -0.101803 -12.617252 -0.000003 0.000031 -8.633987 -1.231629 3.950023 3.590375 -0.183713 4.130723 10.291333 -0.522097 -5.348516 8.035838 -0.224942 -5.341325 3.120601 -0.199756 -9.484005 2.232774 -0.391459 -9.446061 3.224530 -0.490738 7.202218 2.501351 0.383700 7.076906 2.504829 0.702950 7.052489 -27.292992 -11.331566 11.520548 -8.403589 -0.093391 -1.941019 -29.160478 -19.416189 -8.363932 -2.318588 -4.298935 -0.446772 8.087298 0.872397 0.413574 17.133844 6.636278 3.687465 20.253536 6.370518 -9.434376 -1.696116 7.323594 -8.103853 -10.968452 7.194275 -18.212827 -10.659747 0.069897 2.462647 -44.441473 17.185232 11.063240 -2.318605 4.298946 0.446764 8.087304 -0.872358 -0.413614 17.133827 -6.636222 -3.687521 20.253560 -6.370406 9.434278 -1.696097 -7.323612 8.103836 
-0.000000 -1.223757 51.597076 0.000000 -0.000000 0.000044 -9.030966 -0.000090 -0.000007 11.081081 0.062700 0.109677 2.430210 0.062002 0.110228 5.188517 0.062001 0.110229 -2.015472 0.062593 0.109984 -5.527825 1.296853 1.367191 -11.514458 1.294348 1.369654 13.264604 0.614929 1.096414 -12.096772 -0.000053 0.000048 -0.661867 -0.000002 0.000003 0.000021 -0.000000 0.000000 -0.000004 0.000007 -0.000020 0.000104 -0.000083 -0.000011 0.000003 -0.000003 -0.000001 0.000011 0.000007 0.000009 0.000007 0.000000 0.000008 0.000102 0.000084 0.000013 -0.000000 -0.000001 0.000002 0.000004 -0.000006 0.000001 -0.000002 0.000000 -0.000000 0.000961 3.851332 11.904978 28.496454 -14.681586 -28.954599 -27.085342 5.808563 -6.010814 -64.125545 -14.296497 -15.794186 4.814249 45.237876 32.496824 0.108394 -0.103818 0.046715 31.239875 13.715132 -10.715220 -21.103476 -3.971325 -2.962970 30.256543 6.344424 -6.448663 -32.343282 -14.390350 -8.157537 20.872339 -11.244816 -8.185811 -18.722436 -18.085388 -5.094125 18.635514 -29.682653 -0.393826 0.555233 0.804612 0.101797 -0.000894 -3.852314 -11.904858 4.508852 16.010715 30.864839 -18.360802 -3.623552 4.370894 -52.490209 6.200293 0.735940 4.813903 -45.237825 -32.497118 0.108399 0.103819 -0.046713 31.239926 -13.715164 10.714980 -21.103473 3.971272 2.963142 30.256553 -6.344445 6.448429 -32.343312 14.390254 8.157747 20.872419 11.244835 8.185623 -18.722465 18.085330 5.094268 18.635555 29.682663 0.393673 0.555237 -0.804612 -0.101799 -12.513733 -0.000003 0.000031 -8.605408 -1.231629 3.950030 3.608955 -0.185065 4.130724 10.309765 -0.524757 -5.348521 8.012642 -0.223771 -5.341325 3.106049 -0.200371 -9.483999 2.218526 -0.394443 -9.446067 3.210967 -0.496049 7.202323 2.487235 0.380092 7.077103 2.504830 0.702950 7.052490 -27.186561 -11.543438 11.371718 -7.448933 -0.097130 -1.720121 -30.089278 -19.256948 -8.304906 -2.318591 -4.298927 -0.446772 8.087294 0.872405 0.413567 17.133842 6.636288 3.687466 20.253541 6.370520 -9.434376 -1.696118 7.323600 -8.103854 -10.483713 7.286231 -18.212315 -10.367746 0.074097 2.395189 -45.043950 17.076462 10.905902 -2.318605 4.298941 0.446766 8.087314 -0.872357 -0.413616 17.133828 -6.636222 -3.687519 20.253562 -6.370402 9.434276 -1.696094 -7.323610 8.103834 
